<svg width="72" height="71" viewBox="0 0 72 71" fill="none" xmlns="http://www.w3.org/2000/svg">
<path d="M16.1926 70.6774H1.53967V23.4901H16.1926V70.6774ZM8.85731 17.0535C4.17241 17.0535 0.370972 13.1712 0.370972 8.48634C0.370972 6.23562 1.26507 4.07709 2.85656 2.48559C4.44806 0.894094 6.60659 0 8.85731 0C11.108 0 13.2666 0.894094 14.8581 2.48559C16.4496 4.07709 17.3436 6.23562 17.3436 8.48634C17.3436 13.1712 13.5422 17.0535 8.85731 17.0535ZM71.0332 70.6774H56.4131V47.7073C56.4131 42.2323 56.3021 35.2125 48.7951 35.2125C41.1771 35.2125 40.0084 41.1595 40.0084 47.3135V70.6774H25.3706V23.4901H39.4228V29.9268H39.6272C41.5835 26.2188 46.3618 22.3063 53.4901 22.3063C68.3197 22.3063 71.0459 32.0724 71.0459 44.7565V70.6774H71.0332Z" fill="#064663"/>
</svg>
