<svg width="69" height="69" viewBox="0 0 69 69" fill="none" xmlns="http://www.w3.org/2000/svg">
<path d="M34.8094 22.7129C28.5522 22.7129 23.4459 27.8193 23.4459 34.0766C23.4459 40.3339 28.5522 45.4403 34.8094 45.4403C41.0666 45.4403 46.1729 40.3339 46.1729 34.0766C46.1729 27.8193 41.0666 22.7129 34.8094 22.7129ZM68.8914 34.0766C68.8914 29.3709 68.934 24.7077 68.6697 20.0105C68.4055 14.5546 67.1608 9.71241 63.1713 5.72275C59.1731 1.72457 54.3396 0.488456 48.8838 0.224183C44.1781 -0.040089 39.5151 0.00253569 34.8179 0.00253569C30.1123 0.00253569 25.4492 -0.040089 20.7521 0.224183C15.2962 0.488456 10.4542 1.73309 6.46459 5.72275C2.46648 9.72094 1.23039 14.5546 0.966122 20.0105C0.701855 24.7163 0.744479 29.3794 0.744479 34.0766C0.744479 38.7738 0.701855 43.4455 0.966122 48.1427C1.23039 53.5987 2.475 58.4408 6.46459 62.4305C10.4627 66.4287 15.2962 67.6648 20.7521 67.929C25.4577 68.1933 30.1208 68.1507 34.8179 68.1507C39.5236 68.1507 44.1866 68.1933 48.8838 67.929C54.3396 67.6648 59.1817 66.4201 63.1713 62.4305C67.1694 58.4323 68.4055 53.5987 68.6697 48.1427C68.9425 43.4455 68.8914 38.7824 68.8914 34.0766ZM34.8094 51.5612C25.1338 51.5612 17.3251 43.7524 17.3251 34.0766C17.3251 24.4008 25.1338 16.592 34.8094 16.592C44.485 16.592 52.2937 24.4008 52.2937 34.0766C52.2937 43.7524 44.485 51.5612 34.8094 51.5612ZM53.0098 19.9594C50.7507 19.9594 48.9264 18.135 48.9264 15.8759C48.9264 13.6168 50.7507 11.7925 53.0098 11.7925C55.2688 11.7925 57.0931 13.6168 57.0931 15.8759C57.0938 16.4124 56.9886 16.9437 56.7836 17.4394C56.5787 17.9351 56.2779 18.3855 55.8986 18.7648C55.5193 19.1442 55.0689 19.4449 54.5732 19.6499C54.0775 19.8549 53.5462 19.96 53.0098 19.9594Z" fill="#064663"/>
</svg>
