<svg width="84" height="69" viewBox="0 0 84 69" fill="none" xmlns="http://www.w3.org/2000/svg">
<path d="M83.7823 8.09575C80.719 9.42655 77.3855 10.3843 73.9518 10.7574C77.5167 8.6244 80.1864 5.25469 81.4598 1.28043C78.1146 3.28459 74.4499 4.68994 70.6283 5.43415C69.0311 3.71445 67.0993 2.34447 64.9533 1.40956C62.8074 0.474645 60.4932 -0.00515972 58.1551 4.18437e-05C48.695 4.18437e-05 41.087 7.72273 41.087 17.1996C41.087 18.5304 41.2471 19.8613 41.5074 21.1416C27.3424 20.3956 14.709 13.5803 6.31007 3.14557C4.7797 5.7781 3.97773 8.77553 3.9876 11.826C3.9876 17.7945 7.0008 23.0572 11.5957 26.1523C8.88785 26.0449 6.24342 25.2953 3.87749 23.9646V24.1763C3.87749 32.5341 9.74371 39.4603 17.562 41.0533C16.094 41.4373 14.5839 41.6337 13.0672 41.638C11.9561 41.638 10.9049 41.5271 9.84382 41.3759C12.0061 48.1912 18.3028 53.1414 25.8008 53.3027C19.9345 57.9303 12.5867 60.6523 4.60826 60.6523C3.17674 60.6523 1.85534 60.6019 0.483887 60.4406C8.05192 65.3303 17.0314 68.1532 26.7017 68.1532C58.095 68.1532 75.2732 41.9606 75.2732 19.2261C75.2732 18.48 75.2732 17.734 75.2232 16.9879C78.5467 14.538 81.4598 11.5034 83.7823 8.09575Z" fill="#064663"/>
</svg>
