<svg width="64" height="68" viewBox="0 0 64 68" fill="none" xmlns="http://www.w3.org/2000/svg">
<path d="M50.7755 10.6533C47.9854 7.70524 46.4478 3.91919 46.449 0H33.8367V46.8444C33.7395 49.3794 32.5831 51.7806 30.6113 53.5422C28.6394 55.3039 26.0059 56.2885 23.2653 56.2889C17.4694 56.2889 12.6531 51.9067 12.6531 46.4667C12.6531 39.9689 19.4286 35.0956 26.4082 37.0978V25.16C12.3265 23.4222 0 33.5467 0 46.4667C0 59.0467 11.2653 68 23.2245 68C36.0408 68 46.449 58.3667 46.449 46.4667V22.7044C51.5633 26.1039 57.7035 27.9278 64 27.9178V16.2444C64 16.2444 56.3265 16.5844 50.7755 10.6533Z" fill="#064663"/>
</svg>
